# xmcd
#
# Track frame offsets:
#	150
#	16526
#	33186
#	51390
#	69805
#	86686
#	108696
#	126175
#	145870
#	163605
#	185364
#	200371
#	220260
#	234881
#	253010
#	281434
#
# Disc length: 3758 seconds
#
# Revision: 1
# Processed by: cddbd v1.5.1PL0 Copyright (c) Steve Scherf et al.
# Submitted via: audiograbber 1.83.01
#
DISCID=d70eac10
DTITLE=Various Artist - Mixed Country Volume 1
DYEAR=1900
DGENRE=Karaoke
TTITLE0=Tammy Cochran - Angels in Waiting
TTITLE1=Sara Evans - Born to fly
TTITLE2=Faith Hill - Breathe
TTITLE3=Jo Dee Messina - Burn
TTITLE4=Complicated - Carolyn Dawn Johnson
TTITLE5=Dixie Chicks - Cowboy Take me Away
TTITLE6=Garth Brooks - The Dance
TTITLE7=Goodbye Earl  - Dixie Chicks
TTITLE8=Grown Men Don't Cry - Tim McGraw
TTITLE9=Brad Paisley - He Didn't have to be
TTITLE10=Kershaw and Morgan - He drinks tequila
TTITLE11=LeAnn Rimes - How Do I Live
TTITLE12=Cyndi Thompson - I Always like that best
TTITLE13=Lee Ann Womack - I Hope you Dance
TTITLE14=Le Ann Rimes - I Need You
TTITLE15=not music - Data Track
EXTD=
EXTT0=
EXTT1=
EXTT2=
EXTT3=
EXTT4=
EXTT5=
EXTT6=
EXTT7=
EXTT8=
EXTT9=
EXTT10=
EXTT11=
EXTT12=
EXTT13=
EXTT14=
EXTT15=
PLAYORDER=
